<mxfile host="app.diagrams.net" agent="Mozilla/5.0 (Macintosh; Intel Mac OS X 10_15_7) AppleWebKit/537.36 (KHTML, like Gecko) Chrome/136.0.0.0 Safari/537.36" version="27.0.6">
  <diagram name="Page-1" id="9OhKOkV_mPs7GRqaQnFj">
    <mxGraphModel dx="1665" dy="800" grid="1" gridSize="15" guides="1" tooltips="1" connect="1" arrows="1" fold="1" page="1" pageScale="1" pageWidth="850" pageHeight="1100" math="0" shadow="0">
      <root>
        <mxCell id="0" />
        <mxCell id="1" parent="0" />
        <mxCell id="GSTNSherqbm7E0yCV95N-1" value="&lt;span style=&quot;font-size: 14px;&quot;&gt;分类&lt;/span&gt;" style="rounded=0;whiteSpace=wrap;html=1;" parent="1" vertex="1">
          <mxGeometry x="360" y="240" width="120" height="40" as="geometry" />
        </mxCell>
        <mxCell id="GSTNSherqbm7E0yCV95N-2" value="id" style="ellipse;whiteSpace=wrap;html=1;" parent="1" vertex="1">
          <mxGeometry x="285" y="180" width="75" height="30" as="geometry" />
        </mxCell>
        <mxCell id="GSTNSherqbm7E0yCV95N-3" value="名称" style="ellipse;whiteSpace=wrap;html=1;" parent="1" vertex="1">
          <mxGeometry x="330" y="150" width="75" height="30" as="geometry" />
        </mxCell>
        <mxCell id="GSTNSherqbm7E0yCV95N-5" value="图片" style="ellipse;whiteSpace=wrap;html=1;" parent="1" vertex="1">
          <mxGeometry x="386.25" y="120" width="67.5" height="30" as="geometry" />
        </mxCell>
        <mxCell id="GSTNSherqbm7E0yCV95N-6" value="显示顺序" style="ellipse;whiteSpace=wrap;html=1;" parent="1" vertex="1">
          <mxGeometry x="435" y="150" width="75" height="30" as="geometry" />
        </mxCell>
        <mxCell id="GSTNSherqbm7E0yCV95N-12" value="" style="endArrow=none;html=1;rounded=0;exitX=0.075;exitY=0;exitDx=0;exitDy=0;exitPerimeter=0;entryX=0.5;entryY=1;entryDx=0;entryDy=0;" parent="1" source="GSTNSherqbm7E0yCV95N-1" target="GSTNSherqbm7E0yCV95N-2" edge="1">
          <mxGeometry width="50" height="50" relative="1" as="geometry">
            <mxPoint x="405" y="215" as="sourcePoint" />
            <mxPoint x="455" y="165" as="targetPoint" />
          </mxGeometry>
        </mxCell>
        <mxCell id="GSTNSherqbm7E0yCV95N-13" value="" style="endArrow=none;html=1;rounded=0;exitX=0.383;exitY=0;exitDx=0;exitDy=0;entryX=0.5;entryY=1;entryDx=0;entryDy=0;exitPerimeter=0;" parent="1" source="GSTNSherqbm7E0yCV95N-1" target="GSTNSherqbm7E0yCV95N-3" edge="1">
          <mxGeometry width="50" height="50" relative="1" as="geometry">
            <mxPoint x="405" y="215" as="sourcePoint" />
            <mxPoint x="315" y="195" as="targetPoint" />
          </mxGeometry>
        </mxCell>
        <mxCell id="GSTNSherqbm7E0yCV95N-15" value="" style="endArrow=none;html=1;rounded=0;entryX=0.5;entryY=1;entryDx=0;entryDy=0;exitX=0.5;exitY=0;exitDx=0;exitDy=0;" parent="1" source="GSTNSherqbm7E0yCV95N-1" target="GSTNSherqbm7E0yCV95N-5" edge="1">
          <mxGeometry width="50" height="50" relative="1" as="geometry">
            <mxPoint x="420" y="225" as="sourcePoint" />
            <mxPoint x="455" y="165" as="targetPoint" />
          </mxGeometry>
        </mxCell>
        <mxCell id="GSTNSherqbm7E0yCV95N-16" value="" style="endArrow=none;html=1;rounded=0;entryX=0.5;entryY=1;entryDx=0;entryDy=0;exitX=0.658;exitY=-0.025;exitDx=0;exitDy=0;exitPerimeter=0;" parent="1" source="GSTNSherqbm7E0yCV95N-1" target="GSTNSherqbm7E0yCV95N-6" edge="1">
          <mxGeometry width="50" height="50" relative="1" as="geometry">
            <mxPoint x="413" y="225" as="sourcePoint" />
            <mxPoint x="455" y="165" as="targetPoint" />
          </mxGeometry>
        </mxCell>
        <mxCell id="gOOllZLePVleClqO8E0X-1" value="父类id" style="ellipse;whiteSpace=wrap;html=1;" parent="1" vertex="1">
          <mxGeometry x="480" y="180" width="75" height="30" as="geometry" />
        </mxCell>
        <mxCell id="kdqK12aHLtf9wxtgI6rD-2" value="" style="endArrow=none;html=1;rounded=0;entryX=0.5;entryY=1;entryDx=0;entryDy=0;exitX=0.892;exitY=0;exitDx=0;exitDy=0;exitPerimeter=0;" edge="1" parent="1" source="GSTNSherqbm7E0yCV95N-1" target="gOOllZLePVleClqO8E0X-1">
          <mxGeometry width="50" height="50" relative="1" as="geometry">
            <mxPoint x="405" y="440" as="sourcePoint" />
            <mxPoint x="455" y="390" as="targetPoint" />
          </mxGeometry>
        </mxCell>
      </root>
    </mxGraphModel>
  </diagram>
</mxfile>
